<svg id="Capa_1" enable-background="new 0 0 512 512" height="512" viewBox="0 0 512 512" width="512" xmlns="http://www.w3.org/2000/svg" xmlns:xlink="http://www.w3.org/1999/xlink"><linearGradient id="SVGID_1_" gradientUnits="userSpaceOnUse" x1="225.387" x2="225.387" y1="390.996" y2="105.996"><stop offset="0" stop-color="#ffe59a"/><stop offset="1" stop-color="#ffffd5"/></linearGradient><linearGradient id="SVGID_2_" gradientUnits="userSpaceOnUse" x1="256" x2="256" y1="480.996" y2="31.004"><stop offset="0" stop-color="#fd5900"/><stop offset="1" stop-color="#ffde00"/></linearGradient><g><g><g><path d="m45 132.246c-8.291 0-15 6.709-15 15v228.75c0 8.291 6.709 15 15 15s15-6.709 15-15v-228.75c0-8.291-6.709-15-15-15zm351.391 38.892c-3.589-6.592-11.514-9.551-18.457-6.885l-121.934 45.718-121.934-45.718c-6.958-2.607-14.868.322-18.457 6.885-9.8 18.032-25.986 53.643-24.302 89.458.278 5.991 4.102 11.235 9.727 13.345l149.707 56.104c3.545 1.314 7.268 1.229 10.547-.015l149.707-56.396c5.654-2.124 9.478-7.427 9.697-13.462 1.363-36.036-14.648-71.251-24.301-89.034zm-170.391-5.142h60c16.553 0 30-13.462 30-30s-13.447-30-30-30h-60c-16.553 0-30 13.462-30 30s13.447 30 30 30z" fill="url(#SVGID_1_)"/></g></g><g><g><path d="m45 360.996c-24.814 0-45 20.186-45 45 0 19.175 22.837 54.302 32.651 68.525 2.812 4.058 7.427 6.475 12.349 6.475s9.536-2.417 12.349-6.475c9.814-14.223 32.651-49.35 32.651-68.525 0-24.814-20.186-45-45-45zm457.273-239.048-241-90c-3.399-1.26-7.149-1.26-10.547 0l-241 90c-5.844 2.198-9.726 7.793-9.726 14.048s3.882 11.851 9.727 14.048l241 90c3.307 1.226 7.008 1.312 10.547 0l241-90c5.845-2.197 9.727-7.793 9.727-14.048s-3.883-11.85-9.728-14.048zm-216.273 29.048h-60c-8.291 0-15-6.709-15-15s6.709-15 15-15h60c8.291 0 15 6.709 15 15s-6.709 15-15 15z" fill="url(#SVGID_2_)"/></g></g></g></svg>